# xmcd
#
# Track frame offsets:
#	150
#	22160
#	43329
#	57684
#	71835
#	85934
#	103209
#	119931
#	137367
#	154352
#	165773
#	179990
#	196896
#	214369
#	230899
#	248171
#	263091
#	277944
#	292199
#	307728
#	327806
#
# Disc length: 4556 seconds
#
# Revision: 1
# Processed by: cddbd v1.5.1PL0 Copyright (c) Steve Scherf et al.
# Submitted via: audiograbber 1.83.01
#
DISCID=5011ca15
DTITLE=Various Artist - Tt058
DYEAR=1900
DGENRE=Karaoke
TTITLE0=Dixie Chicks - Cowboy Take Me Away
TTITLE1=Dixie Chicks - Goodbye Earl
TTITLE2=Dixie Chicks - I Can Love You Better
TTITLE3=Dixie Chicks - If I Fall, You're Goin' Down With Me
TTITLE4=Dixie Chicks - Let 'Er Rip
TTITLE5=Dixie Chicks - Loving Arms
TTITLE6=Dixie Chicks - Once You've Loved Somebody
TTITLE7=Dixie Chicks - Ready To Run
TTITLE8=Dixie Chicks - Sin Wagon
TTITLE9=Dixie Chicks - Some Days You Gotta Dance Total
TTITLE10=Dixie Chicks - There's Your Trouble
TTITLE11=Dixie Chicks - Yonight The Heartache's On Me
TTITLE12=Dixie Chicks - Wide Open Spaces
TTITLE13=Dixie Chicks - Without You
TTITLE14=Dixie Chicks - You Were Mine
TTITLE15=Forever Sisters - Men
TTITLE16=Judds - Have Mercy
TTITLE17=Judds - Mama He's Crazy
TTITLE18=Judds - Why Not Me
TTITLE19=Judds - Young Love
TTITLE20=Judds - Let 'Er Rip
EXTD=
EXTT0=
EXTT1=
EXTT2=
EXTT3=
EXTT4=
EXTT5=
EXTT6=
EXTT7=
EXTT8=
EXTT9=
EXTT10=
EXTT11=
EXTT12=
EXTT13=
EXTT14=
EXTT15=
EXTT16=
EXTT17=
EXTT18=
EXTT19=
EXTT20=
PLAYORDER=
